Coordinates
version=1
nRows=19
nColumns=24
inDegrees=yes

Units are S.I. units (second, meters, Newtons, ...)
Angles are in degrees.

endheader
time	pelvis_tilt	pelvis_list	pelvis_rotation	pelvis_tx	pelvis_ty	pelvis_tz	hip_flexion_r	hip_adduction_r	hip_rotation_r	knee_angle_r	ankle_angle_r	subtalar_angle_r	mtp_angle_r	hip_flexion_l	hip_adduction_l	hip_rotation_l	knee_angle_l	ankle_angle_l	subtalar_angle_l	mtp_angle_l	lumbar_extension	lumbar_bending	lumbar_rotation
      1.35783333	     -2.14017495	     -1.19305389	     -6.12176397	      0.85977541	      0.96079120	      0.30701314	    -20.44805983	      1.26248446	      1.48668566	     -5.53587872	     16.69754957	      0.62687370	      5.70204733	     27.30273482	     -3.52630111	     -2.90213435	      8.86290793	      1.79446052	     -2.14855978	      1.32733997	    -12.37719838	      6.63948939	     11.08026687
      1.36200000	     -2.05448619	     -1.06608819	     -6.20676987	      0.86583617	      0.96017456	      0.30680665	    -20.73121338	      1.02799107	      1.38869011	     -5.82948631	     16.44694083	      0.67284801	      8.94318399	     27.30209546	     -3.43858830	     -2.53928517	      8.23008233	      1.79055122	     -2.66432451	      1.53379342	    -12.45201339	      6.42373991	     11.00920275
      1.36616667	     -2.05931254	     -0.95802255	     -6.29838867	      0.87190140	      0.95946679	      0.30659959	    -20.89529726	      0.82582110	      1.33328434	     -6.17987866	     16.26416623	      0.68091262	      8.95935280	     27.44239977	     -3.37258612	     -2.32195368	      7.47214007	      1.86724067	     -2.94726433	      1.53868059	    -12.43602866	      6.25158290	     11.04352947
      1.37033333	     -2.09892126	     -0.85097340	     -6.37115043	      0.87802999	      0.95870570	      0.30633165	    -20.99981165	      0.62778189	      1.18587758	     -6.58511268	     16.13984747	      0.90448441	      9.08565390	     27.56657801	     -3.29949505	     -1.84236420	      6.79798454	      1.68130550	     -3.71337612	      1.55376276	    -12.35483332	      6.05455060	     11.13330773
      1.37450000	     -2.08138148	     -0.70965146	     -6.45702208	      0.88422428	      0.95805907	      0.30608274	    -21.17465631	      0.38608613	      1.06369805	     -6.95919915	     15.92123898	      0.99380725	      9.27210840	     27.62526157	     -3.18466844	     -1.47808483	      6.10391886	      1.48950990	     -4.38147389	      1.58119766	    -12.34340753	      5.82719119	     11.13618935
      1.37866667	     -2.09467057	     -0.55933557	     -6.54130092	      0.89048750	      0.95739913	      0.30582128	    -21.31661197	      0.14041367	      0.94994509	     -7.33223047	     15.67284520	      1.04628043	      9.48621594	     27.72361489	     -3.05548266	     -1.15540227	      5.37403559	      1.25396562	     -5.03871565	      1.61842640	    -12.27743377	      5.59377680	     11.16181538
      1.38283333	     -2.07357200	     -0.39788216	     -6.64990669	      0.89677420	      0.95681500	      0.30557623	    -21.47613024	     -0.12929797	      0.85784425	     -7.73721258	     15.41594033	      1.07689143	     10.04206478	     27.75131963	     -2.91565760	     -0.81534407	      4.69393399	      0.94029266	     -5.84283901	      1.72723259	    -12.26975383	      5.34443604	     11.15344750
      1.38700000	     -2.10406890	     -0.21994293	     -6.73978548	      0.90314450	      0.95619626	      0.30529462	    -21.57695491	     -0.40400594	      0.72063581	     -8.13650982	     15.00278201	      0.99538278	     14.03737097	     27.85374977	     -2.74948127	     -0.57755397	      3.97470345	      0.50457620	     -6.47478747	      2.52984390	    -12.17311165	      5.09197342	     11.13265122
      1.39116667	     -2.14905051	     -0.03537154	     -6.83524506	      0.90955624	      0.95559137	      0.30500771	    -21.65293668	     -0.68462580	      0.59537144	     -8.55921469	     14.65755457	      1.00687192	     14.10594577	     27.96299794	     -2.57316799	     -0.34407925	      3.25735314	      0.02904834	     -7.19395455	      2.51979198	    -12.05342869	      4.81725537	     11.23299214
      1.39533333	     -2.18639646	      0.16770811	     -6.93743802	      0.91601553	      0.95502456	      0.30471143	    -21.72255124	     -0.98787948	      0.47438844	     -9.00619351	     14.28511785	      0.97662334	     14.24466490	     28.05382132	     -2.37389532	     -0.13010368	      2.56549724	     -0.55535216	     -7.97441555	      2.52665455	    -11.93989645	      4.52981018	     11.25632451
      1.39950000	     -2.23226449	      0.38751819	     -7.04575822	      0.92250936	      0.95449012	      0.30440507	    -21.75995822	     -1.30951976	      0.34227180	     -9.49093580	     13.87789995	      0.93032516	     14.46782672	     28.14339307	     -2.15505048	      0.06614766	      1.88947615	     -1.20737155	     -8.78823526	      2.55099354	    -11.81831043	      4.23099023	     11.28804951
      1.40366667	     -2.28547589	      0.61679782	     -7.15302930	      0.92905261	      0.95398082	      0.30410266	    -21.77740554	     -1.63761049	      0.20772412	     -9.99425077	     13.42386247	      0.85138157	     14.78852293	     28.23859360	     -1.92318762	      0.21301585	      1.22712851	     -1.91975196	     -9.56890619	      2.58963348	    -11.67560090	      3.90662206	     11.32042459
      1.40783333	     -2.24172559	      0.91014530	     -7.26840983	      0.93569175	      0.95364147	      0.30378655	    -21.90482555	     -2.05105886	      0.03102566	    -10.45944387	     12.91459135	      0.78734868	     17.70024453	     28.21845542	     -1.61305777	      0.26931621	      0.59529763	     -2.74016573	    -10.38938283	      3.04540896	    -11.63751001	      3.52192883	     11.20272392
      1.41200000	     -2.43831427	      1.12588017	     -7.36190674	      0.94225346	      0.95302925	      0.30345228	    -21.72928775	     -2.33546316	     -0.04494089	    -11.03171116	     12.39485262	      0.56274909	     17.87473403	     28.51635425	     -1.40084481	      0.30291314	     -0.16273708	     -3.52178918	    -10.96403885	      3.05380975	    -11.31676872	      3.23275222	     11.38139282
      1.41616667	     -2.50557301	      1.40593339	     -7.46719500	      0.94891054	      0.95262707	      0.30309600	    -21.68090100	     -2.71320371	     -0.19062683	    -11.60735712	     11.81781221	      0.40833865	     18.19822312	     28.62904025	     -1.10606643	      0.37347196	     -0.81494338	     -4.41790010	    -11.72283558	      3.08460171	    -11.14739912	      2.85967695	     11.42190665
      1.42033333	     -2.59810889	      1.69411147	     -7.56262619	      0.95558433	      0.95223376	      0.30275338	    -21.59958052	     -3.08581409	     -0.30412682	    -12.18741678	     11.26013888	      0.20300399	     18.52396380	     28.80173990	     -0.80413006	      0.32572165	     -1.52698427	     -5.33295908	    -12.35904982	      3.11106888	    -10.92733095	      2.48889752	     11.44683687
      1.42450000	     -2.67285451	      2.01070405	     -7.64369076	      0.96230224	      0.95189641	      0.30233418	    -21.50490296	     -3.49658836	     -0.51243647	    -12.81080954	     10.54078603	     -0.01831063	     23.80512837	     28.94533605	     -0.45854380	      0.31064405	     -2.21488183	     -6.21354124	    -12.98879277	      3.76481486	    -10.73504561	      2.08711598	     11.41631640
      1.42866667	     -2.77323240	      2.31490207	     -7.73980913	      0.96900148	      0.95159305	      0.30196879	    -21.37069053	     -3.88121693	     -0.59480121	    -13.45392588	      9.85876252	     -0.32631359	     23.87491394	     29.13907753	     -0.13952403	      0.21385951	     -2.95600575	     -7.08113466	    -13.51788624	      3.75092051	    -10.51466897	      1.69437078	     11.49382334
      1.43283333	     -2.87272633	      2.64030209	     -7.81696430	      0.97573181	      0.95132125	      0.30154270	    -21.21124670	     -4.28630425	     -0.72391480	    -14.14307181	      9.13833272	     -0.60315049	     24.03320581	     29.33208295	      0.21461533	      0.16862867	     -3.69356598	     -7.93963806	    -14.08578246	      3.73691376	    -10.29074703	      1.28442211	     11.52255983
